<svg version="1.1" viewBox="0.0 0.0 280.0 101.0" fill="none" stroke="none" stroke-linecap="square" stroke-miterlimit="10" xmlns:xlink="http://www.w3.org/1999/xlink" xmlns="http://www.w3.org/2000/svg"><clipPath id="p.0"><path d="m0 0l280.0 0l0 101.0l-280.0 0l0 -101.0z" clip-rule="nonzero"/></clipPath><g clip-path="url(#p.0)"><path fill="#000000" fill-opacity="0.0" d="m0 0l280.0 0l0 101.0l-280.0 0z" fill-rule="evenodd"/><path fill="#000000" fill-opacity="0.0" d="m-26.750664 7.5196867l234.64566 -1.3858266l12.566925 104.157486l-234.64566 1.3858261z" fill-rule="evenodd"/><path fill="#ff0000" d="m31.156235 29.37807l-19.109041 0.11285782l1.5596333 -17.009506l57.592743 -0.3401451l-1.5440063 17.009415l-18.999668 0.112213135l-4.9890556 54.030407l-19.499659 0.11516571l4.9890537 -54.030407zm47.340027 -17.279888l47.405426 -0.2799778l-1.5596313 17.009506l-27.890144 0.16472054l-0.9036484 10.005512l23.812096 -0.14063644l-1.5015717 15.806019l-23.79647 0.14054489l-1.0554504 11.209549l28.79638 -0.17006683l-1.5440063 17.009415l-48.296043 0.28524017l6.533066 -71.039825zm57.498947 -0.33959103l47.40541 -0.2799778l-1.5596313 17.009508l-27.890137 0.16471863l-0.90364075 10.005512l23.812088 -0.14063644l-1.5015717 15.806019l-23.796463 0.14054489l-1.0554504 11.209557l28.796371 -0.17007446l-1.5440063 17.009415l-48.296036 0.28524017l6.533066 -71.039825z" fill-rule="nonzero"/><path fill="#000000" fill-opacity="0.0" d="m-60.290684 5.02015l306.96063 -1.7637794l12.566925 103.02362l-306.96063 1.7637787z" fill-rule="evenodd"/><path fill="#073763" d="m34.613514 26.497942l-18.843441 0.10827446l1.5031271 -16.77454l56.82718 -0.3265257l-1.503128 16.774538l-18.749683 0.10773468l-4.8487053 53.309994l-19.234056 0.11051178l4.848707 -53.30999zm46.68047 -17.034124l46.764854 -0.26870823l-1.503128 16.77454l-27.530792 0.15818977l-0.8587265 9.880096l23.483986 -0.13493729l-1.4603806 15.586773l-23.483986 0.13493729l-1.010849 11.068493l28.405785 -0.16321945l-1.503128 16.77454l-47.65547 0.2738266l6.351837 -70.08453zm56.726357 -0.3259468l46.764862 -0.26870823l-1.503128 16.77454l-27.530792 0.15818977l-0.85873413 9.880096l23.483994 -0.13493729l-1.4603882 15.586773l-23.483994 0.13493729l-1.0108337 11.068493l28.405777 -0.16321945l-1.503128 16.774536l-47.655457 0.2738266l6.351822 -70.084526z" fill-rule="nonzero"/><path fill="#000000" fill-opacity="0.0" d="m55.80501 6.726241l190.89764 -1.1338582l11.559067 95.11811l-190.89764 1.1338577z" fill-rule="evenodd"/><path fill="#ffffff" d="m140.4945 11.83344l41.093033 -0.24407673l-0.92129517 10.818163l-28.936996 0.171875l-1.3648682 15.274l24.921432 -0.1480217l-0.9243164 10.02129l-24.921432 0.14802551l-1.4786835 16.524696l29.655716 -0.17613983l-1.0150299 10.818718l-41.889893 0.24880981l5.7823334 -63.45734z" fill-rule="nonzero"/><path fill="#000000" fill-opacity="0.0" d="m-58.75047 7.520928l190.89764 -1.1338582l11.5590515 95.11811l-190.89764 1.1338577z" fill-rule="evenodd"/><path fill="#ffffff" d="m38.064083 23.3688l-19.030916 0.11303711l0.92129135 -10.818164l50.29599 -0.29873848l-1.0150452 10.818719l-18.937164 0.11248016l-4.767292 52.63862l-12.327908 0.0732193l4.861042 -52.639175z" fill-rule="nonzero"/><path fill="#000000" fill-opacity="0.0" d="m-0.85876507 7.2673287l190.89764 -1.1338582l11.5590515 95.11811l-190.89764 1.1338577z" fill-rule="evenodd"/><path fill="#ffffff" d="m83.83073 12.374527l41.093025 -0.24407673l-0.92128754 10.818164l-28.936989 0.1718731l-1.3648682 15.274002l24.921432 -0.14802551l-0.9243164 10.021294l-24.921432 0.1480217l-1.4786911 16.524704l29.655724 -0.17614746l-1.0150375 10.818718l-41.889885 0.24880981l5.7823257 -63.457336z" fill-rule="nonzero"/><path fill="#000000" fill-opacity="0.0" d="m156.27612 80.030235l131.87402 -31.716534l15.905487 44.031498l-131.87401 31.71653z" fill-rule="evenodd"/><path fill="#073763" d="m200.92157 77.299965l4.253708 -1.0230408l2.5523224 18.767235l10.558304 -2.5393372l0.5346222 3.8569107l-14.842392 3.569687l-3.0565643 -22.631454zm23.394333 -5.62648l3.8283386 -0.9207382l10.971481 20.72786l-4.420807 1.06324l-2.6171265 -5.1881027l-7.124954 1.7135925l-1.0592957 6.072304l-4.420822 1.06324l4.8431854 -24.531395zm6.607849 12.761772l-4.027405 -8.22374l-1.6695251 9.593887l5.69693 -1.3701477zm7.5199585 -16.1596l11.317902 -2.7220306q1.2457275 -0.29960632 2.2957458 0.13889313q1.0652313 0.43484497 1.8386078 1.3416367q0.7832184 0.88835907 1.189148 2.0120926q0.44865417 1.2420197 0.36476135 2.5639114q-0.08387756 1.3218842 -0.6937866 2.5131607q-0.60006714 1.1728363 -1.7393188 2.0414429q1.5274963 0.114746094 2.6930084 1.0557938q1.1807251 0.9373932 1.7468567 2.5046997q0.5928955 1.641243 0.38378906 3.0736008q-0.20910645 1.4323578 -1.0842896 2.574936q-0.8805084 1.1277924 -2.1786957 1.9221268q-1.3035126 0.77954865 -2.9290314 1.1705017l-10.148132 2.440689l-3.0565643 -22.631454zm12.697601 16.455795q0.5924835 -0.14250183 1.094162 -0.53635406q0.50167847 -0.39385986 0.76597595 -0.9877548q0.27949524 -0.59754944 0.32862854 -1.2843246q0.064315796 -0.6904297 -0.1867218 -1.385376q-0.22966003 -0.6357956 -0.62394714 -1.0873642q-0.3942871 -0.4515686 -0.9112854 -0.6486435q-0.52233887 -0.21185303 -1.0692444 -0.080314636l-6.1071167 1.4687958l0.83032227 5.9553223l5.8792267 -1.4139862zm-1.8998566 -9.28183q0.5621033 -0.13518524 1.0235443 -0.5032959q0.45610046 -0.38289642 0.72657776 -0.91399384q0.28033447 -0.54953766 0.31427002 -1.2326584q0.049118042 -0.68678284 -0.22328186 -1.4408646q-0.3418274 -0.9463043 -0.99520874 -1.3837738q-0.64352417 -0.45590973 -1.4638824 -0.25860596l-5.4082794 1.3007278l0.76989746 5.6966553l5.256363 -1.2641907z" fill-rule="nonzero"/><path fill="#000000" fill-opacity="0.0" d="m163.82338 -14.957666l62.954575 -7.488035l12.117386 130.38335l-62.954575 7.488037z" fill-rule="evenodd"/><path fill="#073763" d="m196.12846 74.39091q-1.8646393 0.8669205 -3.156784 0.97341156q-1.2766113 0.104637146 -2.9308624 -0.8157959q-2.0000763 -1.6031113 -1.585495 -3.5563736q0.4300995 -1.9551163 2.9140472 -4.0915756q1.7281494 -1.3227463 2.5771637 -1.470932q0.8645325 -0.15003967 2.6702728 0.37473297q3.2824707 1.56073 3.12706 3.9394836q-0.13990784 2.376915 -3.6154022 4.647049z" fill-rule="nonzero"/><path fill="#000000" fill-opacity="0.0" d="m207.48691 4.3961124l-10.686737 58.73017" fill-rule="evenodd"/><path stroke="#073763" stroke-width="8.0" stroke-linejoin="round" stroke-linecap="butt" d="m207.48691 4.3961124l-10.686737 58.73017" fill-rule="evenodd"/><path fill="#000000" fill-opacity="0.0" d="m214.8279 7.4013886l-18.045517 55.752743" fill-rule="evenodd"/><path stroke="#073763" stroke-width="8.0" stroke-linejoin="round" stroke-linecap="butt" d="m214.8279 7.4013886l-18.045517 55.752743" fill-rule="evenodd"/><path fill="#000000" fill-opacity="0.0" d="m203.014 3.8439918l16.967316 4.3495393" fill-rule="evenodd"/><path stroke="#ffffff" stroke-width="2.0" stroke-linejoin="round" stroke-linecap="butt" d="m203.014 3.8439918l16.967316 4.3495393" fill-rule="evenodd"/></g></svg>