<?xml version="1.0" encoding="UTF-8" standalone="no"?>
<svg
   xmlns:dc="http://purl.org/dc/elements/1.1/"
   xmlns:cc="http://creativecommons.org/ns#"
   xmlns:rdf="http://www.w3.org/1999/02/22-rdf-syntax-ns#"
   xmlns:svg="http://www.w3.org/2000/svg"
   xmlns="http://www.w3.org/2000/svg"
   xmlns:sodipodi="http://sodipodi.sourceforge.net/DTD/sodipodi-0.dtd"
   xmlns:inkscape="http://www.inkscape.org/namespaces/inkscape"
   width="57.219543mm"
   height="16.114634mm"
   viewBox="0 0 57.219543 16.114634"
   version="1.1"
   id="svg8"
   inkscape:version="1.0.2 (e86c8708, 2021-01-15)"
   sodipodi:docname="unil-rainbow-short.svg"
   inkscape:export-filename="/Users/vsud/lab-mullon.github.io/assets/images/unil-rainbow-short.png"
   inkscape:export-xdpi="40.290821"
   inkscape:export-ydpi="40.290821">
  <defs
     id="defs2">
    <clipPath
       clipPathUnits="userSpaceOnUse"
       id="clipPath985">
      <rect
         style="fill:#ff4a4a;fill-opacity:0.672065;stroke:none;stroke-width:0.37266;stroke-miterlimit:10;stop-color:#000000"
         id="rect987"
         width="19.670439"
         height="19.692236"
         x="5.2804112"
         y="-21.277536" />
    </clipPath>
  </defs>
  <sodipodi:namedview
     id="base"
     pagecolor="#ffffff"
     bordercolor="#666666"
     borderopacity="1.0"
     inkscape:pageopacity="0.0"
     inkscape:pageshadow="2"
     inkscape:zoom="2.8"
     inkscape:cx="116.90618"
     inkscape:cy="38.681697"
     inkscape:document-units="mm"
     inkscape:current-layer="layer1"
     inkscape:document-rotation="0"
     showgrid="false"
     inkscape:window-width="1252"
     inkscape:window-height="943"
     inkscape:window-x="2224"
     inkscape:window-y="108"
     inkscape:window-maximized="0" />
  <metadata
     id="metadata5">
    <rdf:RDF>
      <cc:Work
         rdf:about="">
        <dc:format>image/svg+xml</dc:format>
        <dc:type
           rdf:resource="http://purl.org/dc/dcmitype/StillImage" />
        <dc:title />
      </cc:Work>
    </rdf:RDF>
  </metadata>
  <g
     inkscape:label="Layer 1"
     inkscape:groupmode="layer"
     id="layer1"
     transform="translate(0.49333048,-0.49130881)">
    <g
       inkscape:label="Layer 1"
       id="layer1-2"
       transform="translate(1.2241093,0.22678619)"
       style="opacity:0.85530547">
      <g
         id="g859"
         style="opacity:0.85;mix-blend-mode:lighten">
        <path
           style="fill:none;stroke:#6f509b;stroke-width:1.41684;stroke-linecap:butt;stroke-linejoin:miter;stroke-miterlimit:0;stroke-dasharray:none;stroke-opacity:1;paint-order:fill markers stroke"
           d="m 13.687093,9.6189925 c -2.606067,0.0055 -5.1003537,2.4619205 -5.0959207,5.2688045 v 0"
           id="path991"
           sodipodi:nodetypes="ccc" />
        <path
           style="fill:none;stroke:#3257a3;stroke-width:1.41684;stroke-linecap:butt;stroke-linejoin:miter;stroke-miterlimit:0;stroke-dasharray:none;stroke-opacity:1;paint-order:fill markers stroke"
           d="m 13.687093,8.2319072 c -3.292147,0.00672 -6.4430909,3.1100558 -6.4374929,6.6558898 v 0"
           id="path991-2"
           sodipodi:nodetypes="ccc" />
        <path
           style="fill:none;stroke:#4cae35;stroke-width:1.41684;stroke-linecap:butt;stroke-linejoin:miter;stroke-miterlimit:0;stroke-dasharray:none;stroke-opacity:1;paint-order:fill markers stroke"
           d="M 13.687093,6.8589817 C 9.7158713,6.8668617 5.9149721,10.61056 5.9217241,14.887797 v 0"
           id="path991-2-1"
           sodipodi:nodetypes="ccc" />
        <path
           style="fill:none;stroke:#fcc73f;stroke-width:1.42651;stroke-linecap:butt;stroke-linejoin:miter;stroke-miterlimit:0;stroke-dasharray:none;stroke-opacity:1;paint-order:fill markers stroke"
           d="M 13.687087,5.5084988 C 9.0478823,5.5177088 4.6076616,9.8911015 4.6155514,14.887788 v 0"
           id="path991-2-1-1"
           sodipodi:nodetypes="ccc" />
        <path
           style="fill:none;stroke:#eb661e;stroke-width:1.39674;stroke-linecap:butt;stroke-linejoin:miter;stroke-miterlimit:0;stroke-dasharray:none;stroke-opacity:1;paint-order:fill markers stroke"
           d="M 13.687118,4.0938525 C 8.3481863,4.1044448 3.2382483,9.1374795 3.247328,14.887816 v 0"
           id="path991-2-1-1-2"
           sodipodi:nodetypes="ccc" />
        <path
           style="fill:none;stroke:#e51729;stroke-width:1.41684;stroke-linecap:butt;stroke-linejoin:miter;stroke-miterlimit:0;stroke-dasharray:none;stroke-opacity:1;paint-order:fill markers stroke"
           d="M 13.687093,2.7132528 C 7.6653023,2.7251997 1.9017838,8.4019752 1.9120249,14.887797 v 0"
           id="path991-2-1-1-2-1"
           sodipodi:nodetypes="ccc" />
      </g>
    </g>
    <g
       id="g20"
       transform="matrix(0.03527778,0,0,-0.03527778,12.23208,22.818258)"
       style="mix-blend-mode:normal">
      <path
         d="m 1180.1489,288.40496 c -6.98,1.172 -63.33,6.718 -99.42,4.804 -20.08,-1.066 -105.28995,-10.582 -142.12995,-17.847 -32.297,-6.387 -77.461,-16.42601 -126.855,-17.11001 -61.094,-0.859 -89.922,12.32501 -106.04,18.94601 -16.089,6.64 -29.121,18.629 -34.453,24.703 -4.781,5.488 -5.093,14.648 -5.093,14.648 0,0 52.996,56.61 78.437,106.211 21.758,42.383 28.199,73.496 30.106,88.359 1.933,14.852 -1.868,27.129 -9.551,32.997 -7.754,5.859 -19.715,7.382 -30.887,1.171 -15.449,-8.535 -29.57,-25.632 -40.871,-41.57 -11.262,-15.949 -26.922,-39.023 -38.328,-78.105 -12.422,-42.715 -14.453,-60.891 -14.785,-70.703 -0.356,-9.786 0.859,-26.836 0.859,-26.836 0,0 -12.609,-17.012 -26.621,-30.528 -14.004,-13.492 -29.668,-25.718 -48.75,-22.515 -14.707,2.48 -16.098,19.449 -16.273,28.343 -0.157,8.868 3.976,20.383 5.253,30.149 1.301,9.726 2.114,6.922 -1.941,10.781 -4.07,3.887 -9.719,2.227 -17.676,2.031 -7.937,-0.195 -6.23,-4.914 -10.715,-12.695 -4.453,-7.773 -15.23,-30.363 -28.23,-42.051 -13.008,-11.676 -18.391,-11.402 -28.621,-10.094 -10.227,1.29 -16.152,6.149 -20.488,15.172 -4.356,9.024 -2.766,41.621 -3.364,50.528 -0.64,8.886 -4.898,15.281 -12.422,19.09 -9.082,4.64 -19.019,2.218 -27.578,-4.832 -8.855,-7.258 -23.992,-28.372 -30.406,-38.868 -6.43,-10.527 -19.809,-25.507 -23.32,-25.382 -4.18,0.148 -3.789,7.199 -2.356,19.269 0.949,7.988 1.864,18.594 2.157,27.949 0.343,9.297 -4.668,13.211 -13.922,15.399 -9.243,2.179 -17.075,-2.762 -22.766,-10.867 -6.57,-9.336 -19.27,-24.961 -32.449,-41.758 -13.203,-16.797 -34.223,-36.617 -42.129,-35.895 -7.934,0.762 -11.457,6.445 -14.399,15.899 -2.925,9.437 1.606,45.668 3.008,59.156 1.407,13.496 10.449,72.43 17.141,103.476 6.687,31.024 9.18,35.614 15.105,58.282 5.911,22.656 7.661,18.769 5.688,29.57 -1.945,10.801 -7.539,10.613 -13.574,12.227 -5.996,1.609 -8.696,1.718 -14.375,-0.879 -5.703,-2.618 -10.051,-4.875 -13.813,-19.2 -3.765,-14.347 -11.656,-38.945 -34.351,-87.168 -22.688,-48.222 -48.848,-90.214 -76.567,-133.007 -23.886997,-36.891 -35.800997,-40.309 -44.003997,-38.473 -6.836,1.543 -7.5,11.074 -7.676,19.469 -0.195,8.418 2.278,20.32 6.528,35.105 4.258,14.778 15.445,43.899 25.613,68.262 10.202997,24.387 31.081997,67.16 48.085997,104.844 18.606,41.25 21.941,59.445 23.809,65.285 2.414,7.566 -4.981,10.633 -10.965,13.172 -5.981,2.55 -15.61,-0.301 -15.61,-0.301 -6.355,-2.07 -11.14,-3.555 -16.492,-9.445 -5.351,-5.887 -20.886,-16.571 -28.104997,-18.739 -5.266,-1.601 -5.574,-4.394 -2.625,-9.492 0,0 1.426,-5.723 7.996,-5 6.554997,0.703 5.077997,1.582 12.108997,2.735 7.024,1.152 7.735,-6.895 3.074,-19.805 -4.668,-12.891 -23.163997,-58.965 -35.463997,-91.68 -12.368,-32.695 -44.3207,-107.226 -47.4926,-142.437 -2.5859,-28.26201 -4.7734,-46.60201 12.8006,-62.20701 23.344,-20.743 74.452997,21.425 92.425997,56.15201 11.934,22.984 56.094,105.934 64.156,123.375 8.071,17.449 23.149,49.141 20.512,41.277 -2.578,-7.84 -17.285,-70.32 -23.906,-126.101 -6.633,-55.75801 12.605,-60.97301 25.918,-67.04701 13.32,-6.055 30.679,4.883 39.746,11.582 9.136,6.66001 42.949,50.66001 45.933,56.63701 3.012,5.945 10.317,5.937 10.18,2.664 -0.09,-3.27 0.039,-29.071 4.781,-40.434 4.746,-11.367 9.192,-17.12901 22.563,-22.26601 13.32,-5.117 21.012,3.594 36.48,25.15701 15.918,22.144 23.989,42.847 27.629,47.281 5.028,6.074 4.817,-3.359 5.645,-12.336 0.925,-9.91 1.406,-26.648 13.508,-41.078 12.085,-14.41401 20.386,-21.69901 44.746,-18.78901 24.375,2.871 47.773,35.62101 47.773,35.62101 0,0 2.051,-22.008 17.832,-37.00801 15.816,-15.039 23.609,-14.551 47.52,-11.641 23.914,2.872 63.211,54.43001 63.211,54.43001 0,0 17.902,-23.883 39.472,-35.93301 26.946,-15.059 79.082,-25.235 123.86,-25.86 44.793,-0.625 117.449,12.5 174.718,26.66 50.47995,12.50001 110.51995,19.18001 132.90995,19.78601 22.45,0.625 51.84,-4.844 54.25,-2.598 2.41,2.246 11.29,6.738 4.32,7.926 z m -484.77695,173.457 c 22.793,38.867 43.227,57.558 49.79,54.922 6.542,-2.637 6.5,-4.434 1.753,-18.75 -4.707,-14.278 -14.324,-47.676 -39.668,-83.555 -25.386,-35.879 -44.878,-60.5 -44.878,-60.5 0,0 3.875,58.234 33.003,107.883 v 0"
         style="fill:#1c95cd;fill-opacity:1;fill-rule:evenodd;stroke:none"
         id="path22" />
      <path
         d="m 535.58695,410.27996 c 0.039,0.547 -0.879,1.914 1.875,1.629 2.739,-0.282 5.157,-1.219 5.45,-1.329 0.277,-0.105 1.964,-0.164 1.964,-0.164 0,0 1.594,7.051 2.286,7.782 0.671,0.722 2.089,0.976 2.8,2.363 0.715,1.398 1.914,3.43 4.426,4.484 2.488,1.055 2.41,1.16 4.973,1.055 2.539,-0.078 5.758,0.078 7.633,-0.637 1.898,-0.73 2.421,-0.945 3.703,-2.402 1.281,-1.473 2.863,-2.371 2.785,-4.168 -0.051,-1.797 0,-2.277 -0.215,-3.691 -0.234,-1.399 -1.047,-2.129 -0.219,-3.411 0.805,-1.238 1.156,-2.019 0.942,-3.523 -0.286,-1.504 0.418,-3.606 -1.016,-4.219 -1.445,-0.625 -5.98,-3.105 -7.895,-3.515 -1.89,-0.411 -8.496,-2.454 -10.23,-2.481 -1.684,-0.019 -7.187,-0.129 -8.984,0.027 -1.782,0.157 -5.911,0.696 -6.614,2.129 -0.73,1.457 -1.379,2.043 -1.902,3.762 -0.488,1.707 -1.762,6.309 -1.762,6.309 v 0"
         style="fill:#1c95cd;fill-opacity:1;fill-rule:evenodd;stroke:none"
         id="path24" />
    </g>
  </g>
</svg>
